<svg width="158" height="157" viewBox="0 0 158 157" fill="none" xmlns="http://www.w3.org/2000/svg">
<g filter="url(#filter0_d_1558_197)">
<path d="M9.41478 46.4686C21.2848 16.7935 50.5074 -1.60161 82.653 0.109963L82.6543 0.108675C98.0432 0.915502 112.8 6.49273 124.876 16.0651C136.952 25.6372 145.75 38.7302 150.048 53.5279L150.335 54.5428C162.089 97.1317 134.431 140.199 90.5856 147.528L89.5384 147.697C86.9197 148.098 84.3131 148.243 81.8468 148.338C79.3127 148.435 77.0196 148.477 74.687 148.648L74.6883 148.65C72.7929 148.791 70.3558 148.507 68.6414 146.472C67.1822 144.739 67.0173 142.542 66.9786 141.217C66.8944 138.474 66.8111 136.084 66.9516 134.218C67.0892 132.392 67.4816 130.169 69.0999 128.42C70.7327 126.656 72.927 126.111 74.7463 125.859C76.5933 125.604 78.9705 125.549 81.6897 125.481H81.6935C104.58 124.928 126.395 104.898 129.173 81.7238C132.613 53.0664 115.122 29.1275 86.7552 23.6847H86.7526C59.4882 18.4346 30.8784 39.4872 27.839 67.0269C27.343 71.8904 27.1194 76.6922 26.7365 82.0612L26.475 85.737H4.70216L4.3557 82.1604C3.18387 70.0339 4.9172 57.8028 9.41092 46.4789L9.41478 46.4686Z" fill="#104C64"/>
<path d="M57.6989 36.6548C84.0377 22.4882 115.979 37.4446 120.891 67.1201C125.694 96.1494 102.882 116.957 79.8903 117.111C77.5618 117.128 75.4795 117.2 74.0559 117.142C72.8213 117.091 70.542 116.957 68.8693 115.297C67.1776 113.618 67.0651 111.332 67.0198 110.178C66.9709 108.932 67.0291 106.801 67.0082 104.794C66.9928 103.3 66.9769 101.842 67.1022 100.657C67.2255 99.4918 67.5473 97.7903 68.8603 96.4056C70.191 95.0022 71.8899 94.603 73.0822 94.4376C74.2793 94.2715 75.7438 94.2528 77.2526 94.2392L78.0331 94.2199C94.2781 93.5794 101.713 78.4728 96.8218 66.6731L96.8205 66.6706C93.4211 58.4507 84.1593 53.2306 75.9634 54.6501C65.8971 56.3917 59.1455 63.9216 58.7653 73.1863C58.6558 75.8966 58.7524 78.4925 58.7524 81.6855V85.6421H37.0349L36.3845 82.4841C34.5479 73.5716 35.6266 64.3043 39.4627 56.0527C43.2988 47.8011 49.6882 41.0029 57.686 36.6625L57.6989 36.6548Z" fill="#104C64"/>
<path d="M31.3625 94.2344C38.0615 94.2344 44.6039 94.3153 51.206 94.2344H51.2537C52.7254 94.2344 55.0189 94.4061 56.7597 96.1084C58.5295 97.8394 58.734 100.165 58.7199 101.759C58.6064 114.991 58.6077 128.241 58.7212 141.506V141.54C58.7212 143.197 58.4139 145.448 56.5613 147.068C54.8935 148.526 52.787 148.692 51.5653 148.743C48.7077 148.863 46.2246 148.976 44.291 148.846C42.4053 148.719 40.0919 148.327 38.3058 146.617C36.5197 144.907 36.0259 142.612 35.8175 140.726C35.6038 138.791 35.6108 136.296 35.6127 133.415L35.605 131.488C35.5724 126.949 35.4565 122.113 35.6746 117.403V117.401C35.6784 117.319 35.6772 117.243 35.6784 117.173C35.5466 117.169 35.3978 117.167 35.2302 117.17C31.2573 117.244 27.2903 117.229 23.3707 117.212C19.4359 117.194 15.549 117.176 11.6632 117.244L11.6349 117.245H11.6053C9.90033 117.25 7.52103 116.979 5.79658 115.088C4.16826 113.301 4.00504 110.991 4.00504 109.461C4.00504 106.749 3.99282 104.375 4.18664 102.531C4.37679 100.723 4.83283 98.5186 6.50624 96.8219C8.18693 95.1179 10.391 94.638 12.2145 94.4353C14.0697 94.2291 16.453 94.2344 19.1913 94.2344H31.3625Z" fill="#104C64"/>
<path d="M76.0935 81.9339C70.9339 81.9339 70.9339 81.9339 70.942 76.4412C70.942 69.8596 73.3796 66.8044 78.5149 66.8125C82.8701 66.8125 85.9009 69.762 85.9822 74.0604C86.0716 79.1469 82.5614 81.9339 76.0935 81.9339Z" fill="#104C64"/>
</g>
<defs>
<filter id="filter0_d_1558_197" x="0" y="0" width="157.047" height="156.902" filterUnits="userSpaceOnUse" color-interpolation-filters="sRGB">
<feFlood flood-opacity="0" result="BackgroundImageFix"/>
<feColorMatrix in="SourceAlpha" type="matrix" values="0 0 0 0 0 0 0 0 0 0 0 0 0 0 0 0 0 0 127 0" result="hardAlpha"/>
<feOffset dy="4"/>
<feGaussianBlur stdDeviation="2"/>
<feComposite in2="hardAlpha" operator="out"/>
<feColorMatrix type="matrix" values="0 0 0 0 0 0 0 0 0 0 0 0 0 0 0 0 0 0 1 0"/>
<feBlend mode="normal" in2="BackgroundImageFix" result="effect1_dropShadow_1558_197"/>
<feBlend mode="normal" in="SourceGraphic" in2="effect1_dropShadow_1558_197" result="shape"/>
</filter>
</defs>
</svg>
