<svg width="230" height="229" viewBox="0 0 230 229" fill="none" xmlns="http://www.w3.org/2000/svg">
<path d="M8.32741 71.4642C26.5824 25.8268 71.5239 -2.46312 120.961 0.169112L120.963 0.167131C144.629 1.40795 167.324 9.98518 185.896 24.7066C204.467 39.4275 217.997 59.5633 224.607 82.3207L225.049 83.8815C243.126 149.379 200.591 215.612 133.16 226.884L131.55 227.143C127.523 227.76 123.514 227.984 119.721 228.13C115.824 228.279 112.297 228.343 108.71 228.607L108.712 228.609C105.797 228.826 102.049 228.39 99.4122 225.259C97.1681 222.595 96.9145 219.216 96.855 217.178C96.7255 212.96 96.5973 209.284 96.8134 206.415C97.025 203.606 97.6285 200.187 100.117 197.497C102.628 194.784 106.003 193.947 108.801 193.56C111.642 193.166 115.297 193.083 119.479 192.977H119.485C154.682 192.127 188.232 161.323 192.503 125.683C197.795 81.6109 170.894 44.7953 127.269 36.4247H127.265C85.3355 28.3506 41.3364 60.7275 36.662 103.081C35.8993 110.56 35.5554 117.945 34.9665 126.202L34.5644 131.855H1.07985L0.54703 126.355C-1.25512 107.705 1.41056 88.8951 8.32147 71.48L8.32741 71.4642Z" fill="#104C64"/>
<path d="M82.5836 56.3703C123.09 34.5835 172.213 57.585 179.767 103.223C187.153 147.867 152.07 179.868 116.712 180.104C113.131 180.13 109.929 180.241 107.739 180.151C105.84 180.073 102.335 179.868 99.7626 177.315C97.161 174.733 96.988 171.217 96.9183 169.441C96.843 167.525 96.9326 164.248 96.9005 161.162C96.8768 158.864 96.8522 156.623 97.045 154.8C97.2346 153.008 97.7295 150.391 99.7488 148.261C101.795 146.103 104.408 145.489 106.242 145.235C108.083 144.979 110.335 144.95 112.655 144.93L113.856 144.9C138.839 143.915 150.274 120.682 142.751 102.536L142.749 102.532C137.521 89.8903 123.277 81.8623 110.673 84.0453C95.1916 86.7238 84.8084 98.3041 84.2237 112.552C84.0552 116.72 84.2039 120.713 84.2039 125.623V131.708H50.8045L49.8042 126.851C46.9796 113.145 48.6386 98.8925 54.5382 86.2024C60.4378 73.5123 70.264 63.0574 82.5638 56.3822L82.5836 56.3703Z" fill="#104C64"/>
<path d="M42.0802 144.922C52.3826 144.922 62.4442 145.046 72.5976 144.922H72.6709C74.9342 144.922 78.4615 145.186 81.1386 147.804C83.8605 150.466 84.1749 154.042 84.1533 156.493C83.9786 176.844 83.9806 197.221 84.1552 217.621V217.673C84.1552 220.221 83.6826 223.683 80.8335 226.174C78.2686 228.417 75.029 228.673 73.1502 228.751C68.7554 228.935 64.9366 229.11 61.9629 228.91C59.0629 228.715 55.5051 228.111 52.7584 225.481C50.0115 222.851 49.2521 219.322 48.9316 216.421C48.6029 213.446 48.6136 209.609 48.6166 205.178L48.6048 202.215C48.5546 195.233 48.3764 187.797 48.7117 180.554V180.55C48.7176 180.424 48.7158 180.307 48.7177 180.199C48.5149 180.193 48.286 180.191 48.0284 180.195C41.9184 180.309 35.8175 180.285 29.7896 180.258C23.7383 180.232 17.7606 180.203 11.7846 180.308L11.741 180.31H11.6955C9.07346 180.318 5.41433 179.901 2.76229 176.992C0.258091 174.245 0.00707182 170.692 0.00707182 168.338C0.00707003 164.168 -0.0117143 160.518 0.286357 157.682C0.578798 154.9 1.28014 151.511 3.85369 148.901C6.43842 146.281 9.82811 145.543 12.6324 145.231C15.4856 144.914 19.1509 144.922 23.3621 144.922H42.0802Z" fill="#104C64"/>
<path d="M110.873 126.005C102.938 126.005 102.938 126.005 102.95 117.558C102.95 107.436 106.699 102.738 114.597 102.75C121.294 102.75 125.956 107.286 126.08 113.897C126.218 121.719 120.82 126.005 110.873 126.005Z" fill="#104C64"/>
</svg>
