<svg width="574" height="158" viewBox="0 0 574 158" fill="none" xmlns="http://www.w3.org/2000/svg">
<g filter="url(#filter0_d_1558_196)">
<path d="M566.991 95.531C568.531 98.8437 569.302 102.58 569.302 106.74C566.836 107.126 564.102 107.357 561.097 107.434C558.169 107.511 555.396 107.28 552.777 106.74C553.008 105.816 552.892 104.891 552.43 103.967C552.045 103.042 551.428 102.234 550.581 101.54C549.811 100.847 548.886 100.346 547.807 100.038C546.806 99.6527 545.804 99.4986 544.803 99.5756C543.031 99.8838 541.683 100.577 540.758 101.656C539.911 102.657 539.487 103.774 539.487 105.007C539.487 106.24 539.949 107.472 540.874 108.705C541.798 109.938 543.147 110.862 544.918 111.478C549.233 112.095 553.277 112.942 557.052 114.021C560.827 115.022 563.601 116.679 565.373 118.99C567.068 121.763 568.108 124.614 568.493 127.541C568.878 130.392 568.339 133.936 566.875 138.173C565.103 141.948 562.33 144.644 558.555 146.262C554.78 147.88 550.658 148.65 546.19 148.573C542.261 148.727 538.717 148.381 535.558 147.533C532.399 146.686 529.664 145.415 527.353 143.72C525.119 142.025 523.347 139.945 522.037 137.48C520.805 135.014 520.188 132.241 520.188 129.159V128.812V128.581C522.731 128.273 525.62 128.196 528.856 128.35C532.091 128.427 534.903 128.466 537.291 128.466C537.369 130.238 538.177 131.701 539.718 132.857C541.336 133.936 543.031 134.591 544.803 134.822C546.575 134.976 548.193 134.629 549.656 133.782C551.12 132.934 551.814 131.393 551.737 129.159C551.968 127.31 551.544 125.923 550.465 124.999C549.387 124.074 547.962 123.381 546.19 122.919C544.418 122.38 542.415 121.917 540.18 121.532C537.946 121.147 535.751 120.492 533.594 119.568C529.279 118.104 526.121 115.831 524.118 112.75C522.192 109.591 521.267 106.355 521.344 103.042C521.498 99.6527 522.577 96.5325 524.58 93.682C526.66 90.8315 529.587 88.9055 533.362 87.904C534.826 87.5188 536.598 87.2106 538.678 86.9795C540.835 86.7484 543.108 86.6328 545.496 86.6328C547.885 86.6328 550.273 86.7869 552.661 87.0951C555.049 87.3262 557.245 87.6729 559.248 88.1351C562.869 89.6759 565.45 92.1412 566.991 95.531Z" fill="#C74E1C"/>
<path d="M498.137 67.6944C499.446 67.7715 500.756 67.733 502.066 67.5789V83.064C502.066 84.0655 502.066 85.1056 502.066 86.1842C502.143 87.2627 502.181 88.3798 502.181 89.5354C504.569 89.4584 507.073 89.3428 509.693 89.1887C512.389 89.0347 515.702 88.8421 519.631 88.6109C520.17 89.2273 520.478 90.1517 520.555 91.3844C520.632 92.54 520.632 93.8112 520.555 95.1979C520.478 96.5846 520.363 98.0099 520.209 99.4736C520.132 100.86 520.17 102.054 520.324 103.056H502.412C502.412 107.216 502.412 111.299 502.412 115.305C502.412 119.235 502.451 122.932 502.528 126.399C503.298 127.478 504.415 128.325 505.879 128.942C507.343 129.558 508.922 130.059 510.617 130.444C512.312 130.752 514.007 130.945 515.702 131.022C517.474 131.099 519.015 131.099 520.324 131.022C520.478 132.1 520.632 133.294 520.786 134.604C520.941 135.914 521.056 137.262 521.133 138.649C521.21 140.035 521.172 141.422 521.018 142.809C520.941 144.196 520.709 145.467 520.324 146.622C517.243 146.776 514.045 146.776 510.733 146.622C507.42 146.391 504.3 145.929 501.372 145.236C498.445 144.542 495.825 143.502 493.514 142.116C491.28 140.729 489.662 138.841 488.661 136.453C487.659 130.521 487.081 124.936 486.927 119.697C486.773 114.381 486.735 108.911 486.812 103.287C485.579 103.364 484.269 103.403 482.883 103.403C481.573 103.403 480.109 103.403 478.491 103.403L478.838 89.3043C480.379 89.3813 481.804 89.4199 483.114 89.4199C484.5 89.4199 485.81 89.4199 487.043 89.4199C487.043 87.725 487.004 85.9145 486.927 83.9885C486.85 81.9855 486.812 79.9824 486.812 77.9794C486.812 75.9763 486.812 74.0503 486.812 72.2013C486.889 70.3523 487.004 68.696 487.158 67.2322C488.16 67.0781 489.238 67.0396 490.394 67.1166C491.627 67.1937 492.898 67.3092 494.207 67.4633C495.517 67.5404 496.827 67.6174 498.137 67.6944Z" fill="#C74E1C"/>
<path d="M475.831 101.356C476.525 101.231 476.889 101.639 476.677 102.317C476.642 102.428 476.605 102.538 476.57 102.648C476.656 105.794 476.83 114.394 476.901 116.751C476.824 118.985 476.709 121.528 476.555 124.378C476.478 127.228 476.285 129.964 475.976 132.583C475.745 135.202 475.399 137.553 474.936 139.633C474.551 141.713 473.973 143.138 473.203 143.908C471.893 145.757 470.16 147.067 468.003 147.837C465.923 148.607 463.651 149.07 461.185 149.224C458.72 149.455 456.178 149.455 453.558 149.224C450.939 149.07 448.551 148.993 446.393 148.993C442.464 148.3 439.151 146.605 436.455 143.908C434.375 142.059 432.95 139.748 432.18 136.975C431.422 134.249 431.017 128.508 430.857 125.459L430.736 125.4C430.736 124.847 430.72 124.292 430.747 123.74C430.753 123.618 430.899 123.49 431 123.386C433.221 121.161 435.444 118.938 437.67 116.718C438.193 116.196 438.519 116.207 439.001 116.765C442.072 120.316 445.141 123.868 448.207 127.419C448.362 127.598 448.526 127.772 448.717 127.991L473.821 103.16L473.788 103.079C473.232 103.179 472.675 103.278 472.12 103.38C471.593 103.477 471.068 103.588 470.54 103.673C470.044 103.752 469.751 103.578 469.676 103.191C469.594 102.769 469.838 102.454 470.34 102.361C472.169 102.023 474 101.688 475.831 101.356ZM449.323 129.244C448.787 129.775 448.481 129.76 447.995 129.197L445.698 126.537C445.638 128.272 446.1 129.632 447.087 130.619C448.088 131.543 449.282 132.198 450.669 132.583C452.133 132.891 453.635 132.968 455.176 132.814C456.716 132.583 457.988 132.198 458.989 131.659C460.299 131.043 461.185 129.771 461.647 127.845C461.955 125.38 462.187 122.914 462.341 120.449C462.47 119.024 462.489 117.648 462.4 116.319L449.323 129.244ZM454.612 114.512C454.612 116.211 454.626 117.91 454.6 119.603C454.588 119.873 454.481 120.131 454.299 120.332C452.559 122.086 450.796 123.819 449.039 125.555C448.953 125.64 448.861 125.712 448.727 125.829C447.794 124.747 446.887 123.701 445.99 122.648C445.906 122.548 445.857 122.422 445.85 122.291C445.843 119.608 445.843 116.928 445.85 114.251C445.859 114.187 445.874 114.125 445.895 114.064H454.585C454.596 114.227 454.612 114.371 454.612 114.512ZM443.01 119.199C442.226 118.296 441.518 117.479 440.81 116.661C440.352 116.133 439.898 115.599 439.436 115.073C438.726 114.264 438.013 114.245 437.261 115C436.399 115.866 435.535 116.731 434.668 117.594C434.566 117.695 434.457 117.79 434.297 117.937V106.422H443.009L443.01 119.199ZM466.193 96.0508C466.193 100.104 466.191 104.158 466.185 108.212C466.186 108.427 466.11 108.635 465.971 108.799C463.247 111.511 460.515 114.215 457.775 116.911C457.695 116.99 457.602 117.06 457.455 117.188V95.6641H466.165C466.175 95.7937 466.193 95.9229 466.193 96.0508Z" fill="#C74E1C"/>
<path d="M409.586 84.0321C409.586 77.0214 409.933 70.0107 410.626 63L426.342 63.3467C426.342 66.5053 426.304 70.3189 426.227 74.7872C426.15 79.2555 426.073 84.0321 425.996 89.1167C425.919 94.2014 425.842 99.4787 425.764 104.949C425.764 110.418 425.764 115.696 425.764 120.78C425.764 125.865 425.803 130.642 425.88 135.11C425.957 139.501 426.073 143.238 426.227 146.319C425.841 146.782 424.878 147.013 423.338 147.013C421.797 147.09 420.102 147.09 418.253 147.013C416.481 147.013 414.786 146.974 413.168 146.897C411.55 146.82 410.472 146.859 409.933 147.013C410.472 140.079 410.665 133.107 410.51 126.096C410.433 119.085 410.279 112.075 410.048 105.064C409.817 98.0534 409.663 91.0427 409.586 84.0321Z" fill="#C74E1C"/>
<path d="M392.319 88.8875C394.091 88.9646 396.209 88.9646 398.675 88.8875H400.639V89.2342C400.562 98.5561 400.369 108.071 400.061 117.778C399.83 127.485 399.984 136.999 400.524 146.321C400.138 146.783 399.175 147.015 397.635 147.015C396.094 147.092 394.399 147.092 392.55 147.015C390.778 147.015 389.083 146.976 387.465 146.899C385.847 146.822 384.769 146.861 384.229 147.015C384.615 142.161 384.769 137.23 384.692 132.223C384.692 127.215 384.615 122.246 384.461 117.315C384.307 112.385 384.229 107.531 384.229 102.755C384.229 97.9013 384.461 93.2018 384.923 88.6564V88.5409C385.231 88.4638 385.732 88.4638 386.425 88.5409C387.196 88.6179 387.773 88.6564 388.159 88.6564C389.16 88.7335 390.547 88.8105 392.319 88.8875ZM384.576 72.709C384.422 70.2438 384.384 67.2392 384.461 63.6953L400.177 64.042C400.177 64.5042 400.177 65.3517 400.177 66.5843C400.254 67.7399 400.292 69.0496 400.292 70.5134C400.369 71.9001 400.408 73.3639 400.408 74.9047C400.485 76.3685 400.524 77.6782 400.524 78.8338C400.215 79.296 399.483 79.6042 398.328 79.7582C397.249 79.9123 395.94 79.9894 394.399 79.9894C392.935 79.9123 391.356 79.8353 389.661 79.7582C387.966 79.6042 386.387 79.5656 384.923 79.6427C384.923 77.4085 384.807 75.0973 384.576 72.709Z" fill="#C74E1C"/>
</g>
<g filter="url(#filter1_d_1558_196)">
<path d="M223.182 33.0428C223.257 33.2668 223.294 33.6403 223.294 34.163C223.593 34.0137 224.265 33.7149 225.311 33.2669C226.431 32.8188 227.514 32.408 228.56 32.0346C229.978 31.5865 231.584 31.2505 233.376 31.0264C235.169 30.7277 236.849 30.541 238.417 30.4663C239.986 30.3916 241.293 30.3916 242.338 30.4663C243.458 30.4663 244.019 30.5036 244.019 30.5783C244.019 33.1175 243.981 35.3579 243.907 37.2997C243.907 39.2414 243.907 40.9964 243.907 42.5647C243.907 44.0583 243.907 45.4399 243.907 46.7095C243.907 47.9791 243.944 49.174 244.019 50.2942L243.01 49.9582C242.637 49.8088 242.226 49.6968 241.778 49.6221C241.405 49.4727 241.031 49.3234 240.658 49.174C239.762 48.9499 238.828 48.7632 237.857 48.6139C236.961 48.4645 236.476 48.3898 236.401 48.3898C234.385 48.1658 232.518 48.0538 230.8 48.0538C229.157 48.0538 227.701 48.3152 226.431 48.8379C225.236 49.3607 224.303 50.1822 223.631 51.3024C222.958 52.4226 222.66 54.0283 222.734 56.1194C222.809 58.7332 222.884 61.1977 222.958 63.5128C223.033 65.828 223.07 68.1804 223.07 70.5702C223.07 72.8853 223.07 75.2751 223.07 77.7396C223.145 80.1294 223.182 82.7059 223.182 85.4692V85.9172C221.913 86.2907 220.755 86.5147 219.71 86.5894C218.664 86.6641 217.581 86.6641 216.461 86.5894C215.341 86.5894 214.109 86.552 212.764 86.4774C211.495 86.4027 209.964 86.44 208.171 86.5894C208.171 77.4036 208.059 68.2178 207.835 59.0319C207.686 49.8461 207.761 40.3242 208.059 30.4663C208.956 30.541 209.702 30.6157 210.3 30.6903C210.897 30.6903 211.457 30.6903 211.98 30.6903C212.503 30.6903 213.063 30.6903 213.661 30.6903C214.258 30.6157 215.005 30.541 215.901 30.4663C216.2 30.4663 216.723 30.429 217.469 30.3543C218.291 30.2796 219.112 30.2049 219.934 30.1302C220.83 30.0555 221.577 30.0555 222.174 30.1302C222.846 30.1302 223.182 30.2049 223.182 30.3543C223.182 30.9517 223.182 31.3998 223.182 31.6985C223.182 31.9973 223.182 32.2587 223.182 32.4827C223.182 32.6321 223.182 32.8188 223.182 33.0428Z" fill="#C74E1C"/>
</g>
<g filter="url(#filter2_d_1558_196)">
<path d="M210.281 40.4834C210.954 40.362 211.307 40.7561 211.101 41.4141C211.067 41.521 211.032 41.6275 210.998 41.7344C211.081 44.7851 211.249 53.1201 211.318 55.4043C211.244 57.57 211.132 60.0348 210.982 62.7979C210.908 65.5609 210.722 68.212 210.423 70.751C210.199 73.29 209.862 75.5677 209.414 77.584C209.041 79.6004 208.481 80.9827 207.734 81.7295C206.465 83.5218 204.784 84.7913 202.693 85.5381C200.677 86.2849 198.474 86.7325 196.084 86.8818C193.694 87.1059 191.23 87.1059 188.69 86.8818C186.151 86.7325 183.836 86.6582 181.745 86.6582C177.937 85.9861 174.725 84.3432 172.111 81.7295C170.095 79.9371 168.713 77.6963 167.966 75.0078C167.232 72.3657 166.84 66.8023 166.685 63.8467L166.566 63.791C166.566 63.2544 166.552 62.7155 166.578 62.1807C166.584 62.0621 166.724 61.9392 166.822 61.8379C168.975 59.6813 171.131 57.5266 173.288 55.374C173.795 54.8678 174.112 54.878 174.579 55.4189C177.556 58.8619 180.531 62.3047 183.503 65.7471C183.653 65.9204 183.813 66.0895 183.997 66.3018L208.333 42.2314L208.301 42.1523C207.762 42.2494 207.223 42.3455 206.685 42.4443C206.173 42.5388 205.665 42.6462 205.152 42.7285C204.671 42.8056 204.387 42.6361 204.314 42.2617C204.235 41.8518 204.472 41.5463 204.958 41.4561C206.731 41.1284 208.506 40.8047 210.281 40.4834ZM184.585 67.5166C184.065 68.0313 183.769 68.0166 183.298 67.4717L181.07 64.8926C181.067 65.0056 181.065 65.083 181.064 65.1318C181.056 66.6983 181.507 67.9366 182.417 68.8467C183.388 69.7428 184.545 70.3776 185.89 70.751C187.309 71.0497 188.765 71.124 190.259 70.9746C191.752 70.7506 192.984 70.3772 193.955 69.8545C195.225 69.257 196.084 68.0252 196.532 66.1582C196.831 63.7684 197.055 61.3781 197.204 58.9883C197.33 57.608 197.347 56.2748 197.262 54.9883L184.585 67.5166ZM189.713 53.2354C189.713 54.8822 189.725 56.5291 189.7 58.1699C189.688 58.4325 189.585 58.6825 189.408 58.877C187.721 60.5768 186.013 62.2579 184.31 63.9404C184.226 64.0228 184.137 64.0925 184.008 64.2061C183.103 63.1572 182.224 62.1433 181.355 61.123C181.273 61.0254 181.225 60.9036 181.219 60.7764C181.212 58.1759 181.212 55.5777 181.219 52.9824C181.227 52.9208 181.242 52.8603 181.263 52.8018H189.686C189.696 52.9594 189.713 53.0993 189.713 53.2354ZM178.465 57.7793C177.706 56.9038 177.019 56.1115 176.333 55.3184C175.888 54.8061 175.448 54.289 175.001 53.7793C174.313 52.9949 173.621 52.9765 172.892 53.709C172.056 54.548 171.218 55.3859 170.378 56.2227C170.279 56.3206 170.174 56.4126 170.019 56.5547V45.3936H178.464L178.465 57.7793ZM200.938 35.3398C200.938 39.2694 200.936 43.1993 200.931 47.1289C200.931 47.337 200.857 47.5386 200.723 47.6973C198.082 50.3261 195.434 52.9477 192.778 55.5615C192.7 55.6378 192.611 55.7052 192.468 55.8291V34.9648H200.911C200.921 35.0905 200.938 35.2159 200.938 35.3398Z" fill="#C74E1C"/>
</g>
<g filter="url(#filter3_d_1558_196)">
<path d="M168.45 36.903C169.944 40.1144 170.69 43.7364 170.69 47.7692C168.301 48.1426 165.649 48.3666 162.737 48.4413C159.899 48.516 157.21 48.292 154.671 47.7692C154.895 46.873 154.783 45.9768 154.335 45.0807C153.962 44.1845 153.364 43.4003 152.543 42.7282C151.796 42.0561 150.9 41.5706 149.854 41.2719C148.883 40.8985 147.913 40.7491 146.942 40.8238C145.224 41.1225 143.917 41.7947 143.021 42.8402C142.2 43.8111 141.789 44.894 141.789 46.0889C141.789 47.2838 142.237 48.4787 143.133 49.6736C144.029 50.8685 145.336 51.7647 147.054 52.3621C151.236 52.9596 155.157 53.781 158.816 54.8266C162.476 55.7974 165.164 57.4031 166.882 59.6435C168.525 62.3321 169.533 65.0953 169.906 67.9332C170.28 70.6964 169.757 74.1317 168.338 78.2392C166.62 81.8986 163.932 84.5124 160.272 86.0808C156.613 87.6491 152.618 88.3959 148.286 88.3212C144.477 88.4706 141.042 88.1345 137.98 87.313C134.918 86.4915 132.267 85.2593 130.026 83.6163C127.861 81.9733 126.143 79.9569 124.873 77.5671C123.679 75.1773 123.081 72.4887 123.081 69.5015V69.1654V68.9414C125.546 68.6426 128.346 68.568 131.483 68.7173C134.619 68.792 137.345 68.8293 139.66 68.8293C139.735 70.547 140.519 71.966 142.013 73.0862C143.581 74.1317 145.224 74.7665 146.942 74.9906C148.659 75.1399 150.228 74.8039 151.647 73.9824C153.066 73.1609 153.738 71.6672 153.663 69.5015C153.887 67.7091 153.476 66.3649 152.431 65.4687C151.385 64.5725 150.004 63.9004 148.286 63.4523C146.568 62.9295 144.627 62.4814 142.461 62.108C140.295 61.7346 138.167 61.0998 136.076 60.2036C131.893 58.7847 128.832 56.5816 126.89 53.5943C125.023 50.5324 124.127 47.3958 124.201 44.1845C124.351 40.8985 125.396 37.8739 127.338 35.1107C129.354 32.3475 132.192 30.4805 135.852 29.5096C137.271 29.1362 138.988 28.8375 141.005 28.6134C143.096 28.3894 145.299 28.2773 147.614 28.2773C149.929 28.2773 152.244 28.4267 154.559 28.7254C156.874 28.9495 159.003 29.2855 160.945 29.7336C164.455 31.2273 166.956 33.6171 168.45 36.903Z" fill="#C74E1C"/>
</g>
<g filter="url(#filter4_d_1558_196)">
<path d="M97.7783 33.4896C97.7783 34.3111 97.8157 35.2446 97.8903 36.2902C98.2637 36.0661 98.7118 35.8048 99.2346 35.506C99.8321 35.2073 100.317 34.9086 100.691 34.6099C102.259 33.4896 104.014 32.5935 105.956 31.9213C107.898 31.2492 109.877 30.8758 111.893 30.8011C113.984 30.7264 116.001 30.9505 117.942 31.4732C119.884 31.996 121.639 32.9295 123.207 34.2738C123.954 34.9459 124.514 36.3649 124.888 38.5306C125.336 40.6217 125.597 43.1609 125.672 46.1481C125.821 49.1354 125.859 52.4214 125.784 56.0061C125.784 59.5161 125.747 63.1008 125.672 66.7602C125.597 70.3449 125.522 73.8176 125.448 77.1783C125.373 80.5389 125.41 83.4888 125.56 86.028C122.946 86.4014 120.593 86.5508 118.502 86.4761C116.486 86.4761 114.171 86.4761 111.557 86.4761C111.408 84.7584 111.333 82.8167 111.333 80.6509C111.333 78.4852 111.333 76.2447 111.333 73.9296C111.408 71.6145 111.408 69.2994 111.333 66.9842C111.333 64.6691 111.258 62.5034 111.109 60.487C111.034 59.5908 110.96 58.6199 110.885 57.5744C110.81 56.4542 110.661 55.3713 110.437 54.3257C110.287 53.2802 110.026 52.3467 109.653 51.5252C109.354 50.7037 108.906 50.0689 108.308 49.6208C108.234 49.5461 108.159 49.5088 108.084 49.5088C108.01 49.5088 107.935 49.4715 107.86 49.3968C107.263 49.0981 106.367 48.874 105.172 48.7246C104.052 48.5006 102.931 48.5753 101.811 48.9487C100.691 49.2474 99.6827 49.9195 98.7865 50.9651C97.8903 51.9359 97.3676 53.4296 97.2182 55.446C97.0688 58.0598 97.0315 60.6363 97.1062 63.1755C97.1809 65.64 97.2555 68.1418 97.3302 70.681C97.4796 73.1455 97.5543 75.61 97.5543 78.0744C97.5543 80.5389 97.4049 83.0034 97.1062 85.4679V85.916C95.8366 86.2894 94.7164 86.5134 93.7455 86.5881C92.8493 86.6628 91.9158 86.6628 90.945 86.5881C89.9741 86.5881 88.8912 86.5508 87.6963 86.4761C86.5014 86.4014 85.0078 86.4388 83.2154 86.5881C83.2154 77.4023 83.1034 68.2165 82.8794 59.0307C82.73 49.8449 82.8047 40.323 83.1034 30.465C83.9996 30.5397 84.7464 30.6144 85.3439 30.6891C85.9413 30.6891 86.5014 30.6891 87.0242 30.6891C87.547 30.6891 88.1071 30.6891 88.7045 30.6891C89.302 30.6144 90.0488 30.5397 90.945 30.465C91.2437 30.465 91.7665 30.4277 92.5133 30.353C93.2601 30.2037 94.0069 30.0916 94.7537 30.0169C95.5005 29.9423 96.1727 29.9423 96.7701 30.0169C97.3676 30.0169 97.6663 30.129 97.6663 30.353C97.8157 31.6226 97.853 32.6681 97.7783 33.4896Z" fill="#C74E1C"/>
</g>
<g filter="url(#filter5_d_1558_196)">
<path d="M61.3664 58.468C59.7234 58.3933 58.5285 58.2813 57.7816 58.1319V60.1483C57.8563 62.3888 57.931 64.2185 58.0057 65.6374C58.1551 67.0563 58.6405 68.438 59.462 69.7822C60.3582 71.4999 61.6277 72.7695 63.2707 73.591C64.9137 74.4125 66.5194 74.6739 68.0877 74.3751C69.656 74.0764 70.9629 73.1802 72.0085 71.6866C73.1287 70.1183 73.6141 67.8032 73.4648 64.7412C74.2116 64.8159 75.2198 64.8532 76.4894 64.8532C77.7589 64.7786 79.0659 64.7039 80.4101 64.6292C81.8291 64.5545 83.1733 64.5545 84.4429 64.6292C85.7125 64.6292 86.758 64.7412 87.5795 64.9653C87.4302 66.907 87.2808 68.8114 87.1314 70.6784C86.9821 72.5454 86.7954 74.3004 86.5713 75.9434C86.3473 77.5117 86.0486 78.8933 85.6752 80.0883C85.3764 81.2085 84.9657 81.9926 84.4429 82.4407C83.1733 84.2331 81.5303 85.5027 79.5139 86.2495C77.4975 86.9963 75.2944 87.4444 72.9046 87.5937C70.5148 87.7431 68.0504 87.7431 65.5112 87.5937C63.0467 87.4444 60.7689 87.3697 58.6778 87.3697C56.5868 87.071 54.645 86.3988 52.8527 85.3533C50.8363 83.9343 49.1559 82.1047 47.8117 79.8642C46.4674 77.5491 45.3845 75.0473 44.563 72.3587C43.7415 69.5955 43.1814 66.6829 42.8827 63.621C42.584 60.5591 42.5093 57.4971 42.6587 54.4352C42.8827 51.672 43.1068 49.0208 43.3308 46.4816C43.6295 43.8678 44.227 41.3286 45.1232 38.8641C46.094 36.6984 47.5876 34.8687 49.604 33.375C51.6204 31.8067 53.8982 30.6492 56.4374 29.9023C58.9766 29.0809 61.6651 28.6328 64.503 28.5581C67.3409 28.4834 70.1041 28.7821 72.7926 29.4543C76.228 30.0517 78.9912 31.2466 81.0823 33.039C83.1733 34.8313 84.7416 36.9971 85.7872 39.5362C86.9074 42.0754 87.5795 44.876 87.8036 47.9379C88.0276 50.9998 88.0276 54.0991 87.8036 57.2357C87.2808 57.3851 86.2726 57.5345 84.779 57.6838C83.36 57.8332 81.6424 57.9826 79.626 58.1319C77.6842 58.2813 75.5932 58.3933 73.3527 58.468C71.1123 58.5427 68.9465 58.58 66.8554 58.58C64.839 58.58 63.0094 58.5427 61.3664 58.468ZM74.4729 43.7931C73.7261 42.4488 72.6806 41.4406 71.3363 40.7685C70.7389 40.3951 70.1414 40.1337 69.544 39.9843C68.9465 39.7603 68.2371 39.6483 67.4156 39.6483C65.6232 39.6483 64.1669 39.835 63.0467 40.2084C61.9265 40.5818 61.0303 41.1046 60.3582 41.7767C59.686 42.4488 59.1633 43.233 58.7899 44.1292C58.4911 45.0253 58.2671 45.9588 58.1177 46.9297C57.9684 47.7512 57.8937 48.3487 57.8937 48.7221C57.9684 49.0208 58.3418 49.2448 59.0139 49.3942C59.686 49.4689 60.7316 49.5062 62.1505 49.5062C63.6441 49.4315 65.8099 49.3942 68.6478 49.3942C70.5895 49.3942 72.0458 49.4315 73.0167 49.5062C73.9875 49.5809 74.6597 49.6182 75.0331 49.6182C75.4812 49.5436 75.7052 49.4315 75.7052 49.2822C75.7052 49.0581 75.7052 48.6474 75.7052 48.0499C75.7052 46.5563 75.2944 45.1374 74.4729 43.7931Z" fill="#C74E1C"/>
</g>
<g filter="url(#filter6_d_1558_196)">
<path d="M47.5985 36.6257C49.0921 39.837 49.8389 43.4591 49.8389 47.4918C47.4491 47.8653 44.7979 48.0893 41.8853 48.164C39.0474 48.2387 36.3589 48.0146 33.8197 47.4918C34.0438 46.5957 33.9318 45.6995 33.4837 44.8033C33.1103 43.9071 32.5128 43.123 31.6913 42.4509C30.9445 41.7787 30.0483 41.2933 29.0028 40.9946C28.0319 40.6212 27.0611 40.4718 26.0902 40.5465C24.3725 40.8452 23.0656 41.5173 22.1694 42.5629C21.3479 43.5337 20.9372 44.6166 20.9372 45.8115C20.9372 47.0064 21.3853 48.2013 22.2815 49.3962C23.1776 50.5911 24.4846 51.4873 26.2022 52.0848C30.3844 52.6822 34.3052 53.5037 37.9646 54.5492C41.6239 55.5201 44.3125 57.1258 46.0301 59.3662C47.6731 62.0547 48.6813 64.8179 49.0547 67.6558C49.4281 70.419 48.9054 73.8544 47.4864 77.9619C45.7688 81.6213 43.0802 84.2351 39.4208 85.8034C35.7615 87.3717 31.766 88.1185 27.4345 88.0439C23.6257 88.1932 20.1904 87.8572 17.1284 87.0357C14.0665 86.2142 11.4153 84.9819 9.17486 83.3389C7.0091 81.6959 5.29143 79.6795 4.02185 77.2897C2.82694 74.8999 2.22949 72.2114 2.22949 69.2241V68.8881V68.664C4.69398 68.3653 7.49453 68.2906 10.6312 68.44C13.7678 68.5147 16.4936 68.552 18.8088 68.552C18.8834 70.2697 19.6676 71.6886 21.1612 72.8088C22.7295 73.8544 24.3725 74.4892 26.0902 74.7132C27.8079 74.8626 29.3762 74.5265 30.7951 73.705C32.2141 72.8835 32.8862 71.3899 32.8115 69.2241C33.0356 67.4318 32.6248 66.0875 31.5793 65.1913C30.5337 64.2952 29.1521 63.623 27.4345 63.1749C25.7168 62.6522 23.7751 62.2041 21.6093 61.8307C19.4436 61.4573 17.3151 60.8225 15.2241 59.9263C11.0419 58.5074 7.97996 56.3043 6.03824 53.317C4.17121 50.2551 3.27503 47.1184 3.34971 43.9071C3.49908 40.6212 4.54462 37.5966 6.48633 34.8334C8.50273 32.0701 11.3406 30.2031 15 29.2322C16.419 28.8588 18.1366 28.5601 20.153 28.3361C22.2441 28.112 24.4472 28 26.7623 28C29.0775 28 31.3926 28.1494 33.7077 28.4481C36.0228 28.6721 38.1513 29.0082 40.093 29.4563C43.603 30.9499 46.1048 33.3397 47.5985 36.6257Z" fill="#C74E1C"/>
</g>
<path d="M267.229 94.0006C267.845 94.0006 268.439 94.093 268.998 94.2652C271.646 94.2692 274.29 94.2665 276.943 94.234H276.991C278.463 94.234 280.756 94.4059 282.497 96.108C284.267 97.839 284.471 100.165 284.457 101.758C284.343 114.991 284.344 128.24 284.458 141.505V141.54C284.458 143.197 284.151 145.447 282.299 147.067C280.631 148.525 278.524 148.692 277.303 148.743C274.445 148.862 271.962 148.975 270.028 148.845C268.143 148.718 265.829 148.327 264.043 146.617C262.257 144.907 261.763 142.611 261.555 140.725C261.341 138.791 261.348 136.296 261.35 133.415L261.342 131.488C261.309 126.948 261.194 122.113 261.412 117.403V117.4C261.416 117.319 261.415 117.243 261.416 117.172C261.284 117.168 261.135 117.167 260.968 117.17C256.995 117.244 253.027 117.229 249.107 117.212C245.173 117.194 241.286 117.175 237.4 117.243L237.372 117.245H237.343C236.623 117.247 235.783 117.198 234.923 117.001H12.2295C8.91592 117.001 6.22971 114.314 6.22949 111.001V100.001C6.22949 96.6869 8.91578 94.0006 12.2295 94.0006H267.229ZM235.152 46.4684C247.022 16.7935 276.245 -1.60155 308.391 0.109955L308.392 0.108978C323.78 0.915805 338.538 6.49261 350.614 16.065C362.69 25.637 371.487 38.7304 375.785 53.5279L376.073 54.5426C387.827 97.1315 360.169 140.199 316.323 147.528L315.276 147.697C312.658 148.098 310.051 148.244 307.585 148.338C305.051 148.436 302.757 148.477 300.425 148.649L300.426 148.65C298.53 148.791 296.093 148.508 294.379 146.472C292.92 144.74 292.755 142.543 292.717 141.217C292.633 138.475 292.549 136.084 292.689 134.218C292.827 132.392 293.22 130.169 294.838 128.421C296.471 126.656 298.665 126.112 300.484 125.86C302.331 125.604 304.709 125.55 307.428 125.481H307.432C330.318 124.928 352.132 104.898 354.91 81.7242C358.351 53.0669 340.86 29.1281 312.493 23.6852H312.49C285.226 18.4351 256.617 39.4873 253.577 67.0269C253.081 71.8903 252.857 76.6923 252.475 82.0611L252.213 85.7369H230.439L230.094 82.1607C228.922 70.0343 230.655 57.803 235.148 46.4791L235.152 46.4684ZM283.437 36.6568C309.775 22.4903 341.717 37.4462 346.629 67.1217C351.431 96.151 328.619 116.959 305.628 117.113C303.3 117.13 301.218 117.202 299.794 117.143C298.559 117.092 296.28 116.959 294.607 115.299C292.916 113.62 292.803 111.334 292.758 110.179C292.709 108.933 292.767 106.802 292.746 104.796C292.731 103.302 292.714 101.844 292.84 100.659C292.963 99.4935 293.285 97.7916 294.598 96.4068C295.928 95.0035 297.628 94.6045 298.82 94.4391C300.017 94.2731 301.482 94.2544 302.99 94.2408L303.771 94.2213C320.015 93.5807 327.451 78.4741 322.56 66.6744L322.559 66.6725C319.159 58.4526 309.897 53.2325 301.701 54.6519C291.635 56.3936 284.883 63.9234 284.503 73.1881C284.393 75.8983 284.49 78.4942 284.49 81.6871V85.6441H262.772L262.122 82.4859C260.285 73.5735 261.364 64.3059 265.2 56.0543C269.036 47.8028 275.426 41.0051 283.424 36.6646L283.437 36.6568ZM304.252 66.8141C308.607 66.8142 311.637 69.7631 311.719 74.0611C311.808 79.1476 308.298 81.9352 301.83 81.9352C296.671 81.9352 296.671 81.9347 296.679 76.442C296.679 69.8606 299.117 66.8059 304.252 66.8141Z" fill="#104C64"/>
<defs>
<filter id="filter0_d_1558_196" x="380.229" y="63" width="193.072" height="94.3984" filterUnits="userSpaceOnUse" color-interpolation-filters="sRGB">
<feFlood flood-opacity="0" result="BackgroundImageFix"/>
<feColorMatrix in="SourceAlpha" type="matrix" values="0 0 0 0 0 0 0 0 0 0 0 0 0 0 0 0 0 0 127 0" result="hardAlpha"/>
<feOffset dy="4"/>
<feGaussianBlur stdDeviation="2"/>
<feComposite in2="hardAlpha" operator="out"/>
<feColorMatrix type="matrix" values="0 0 0 0 0 0 0 0 0 0 0 0 0 0 0 0 0 0 1 0"/>
<feBlend mode="normal" in2="BackgroundImageFix" result="effect1_dropShadow_1558_196"/>
<feBlend mode="normal" in="SourceGraphic" in2="effect1_dropShadow_1558_196" result="shape"/>
</filter>
<filter id="filter1_d_1558_196" x="205.531" y="30.0742" width="40.7175" height="61.03" filterUnits="userSpaceOnUse" color-interpolation-filters="sRGB">
<feFlood flood-opacity="0" result="BackgroundImageFix"/>
<feColorMatrix in="SourceAlpha" type="matrix" values="0 0 0 0 0 0 0 0 0 0 0 0 0 0 0 0 0 0 127 0" result="hardAlpha"/>
<feOffset dy="2.22984"/>
<feGaussianBlur stdDeviation="1.11492"/>
<feComposite in2="hardAlpha" operator="out"/>
<feColorMatrix type="matrix" values="0 0 0 0 0 0 0 0 0 0 0 0 0 0 0 0 0 0 1 0"/>
<feBlend mode="normal" in2="BackgroundImageFix" result="effect1_dropShadow_1558_196"/>
<feBlend mode="normal" in="SourceGraphic" in2="effect1_dropShadow_1558_196" result="shape"/>
</filter>
<filter id="filter2_d_1558_196" x="164.333" y="34.9648" width="49.2155" height="56.5456" filterUnits="userSpaceOnUse" color-interpolation-filters="sRGB">
<feFlood flood-opacity="0" result="BackgroundImageFix"/>
<feColorMatrix in="SourceAlpha" type="matrix" values="0 0 0 0 0 0 0 0 0 0 0 0 0 0 0 0 0 0 127 0" result="hardAlpha"/>
<feOffset dy="2.22984"/>
<feGaussianBlur stdDeviation="1.11492"/>
<feComposite in2="hardAlpha" operator="out"/>
<feColorMatrix type="matrix" values="0 0 0 0 0 0 0 0 0 0 0 0 0 0 0 0 0 0 1 0"/>
<feBlend mode="normal" in2="BackgroundImageFix" result="effect1_dropShadow_1558_196"/>
<feBlend mode="normal" in="SourceGraphic" in2="effect1_dropShadow_1558_196" result="shape"/>
</filter>
<filter id="filter3_d_1558_196" x="120.851" y="28.2773" width="52.0691" height="64.5378" filterUnits="userSpaceOnUse" color-interpolation-filters="sRGB">
<feFlood flood-opacity="0" result="BackgroundImageFix"/>
<feColorMatrix in="SourceAlpha" type="matrix" values="0 0 0 0 0 0 0 0 0 0 0 0 0 0 0 0 0 0 127 0" result="hardAlpha"/>
<feOffset dy="2.22984"/>
<feGaussianBlur stdDeviation="1.11492"/>
<feComposite in2="hardAlpha" operator="out"/>
<feColorMatrix type="matrix" values="0 0 0 0 0 0 0 0 0 0 0 0 0 0 0 0 0 0 1 0"/>
<feBlend mode="normal" in2="BackgroundImageFix" result="effect1_dropShadow_1558_196"/>
<feBlend mode="normal" in="SourceGraphic" in2="effect1_dropShadow_1558_196" result="shape"/>
</filter>
<filter id="filter4_d_1558_196" x="80.5748" y="29.9609" width="47.4763" height="61.1433" filterUnits="userSpaceOnUse" color-interpolation-filters="sRGB">
<feFlood flood-opacity="0" result="BackgroundImageFix"/>
<feColorMatrix in="SourceAlpha" type="matrix" values="0 0 0 0 0 0 0 0 0 0 0 0 0 0 0 0 0 0 127 0" result="hardAlpha"/>
<feOffset dy="2.22984"/>
<feGaussianBlur stdDeviation="1.11492"/>
<feComposite in2="hardAlpha" operator="out"/>
<feColorMatrix type="matrix" values="0 0 0 0 0 0 0 0 0 0 0 0 0 0 0 0 0 0 1 0"/>
<feBlend mode="normal" in2="BackgroundImageFix" result="effect1_dropShadow_1558_196"/>
<feBlend mode="normal" in="SourceGraphic" in2="effect1_dropShadow_1558_196" result="shape"/>
</filter>
<filter id="filter5_d_1558_196" x="40.3541" y="28.5469" width="49.8474" height="63.6198" filterUnits="userSpaceOnUse" color-interpolation-filters="sRGB">
<feFlood flood-opacity="0" result="BackgroundImageFix"/>
<feColorMatrix in="SourceAlpha" type="matrix" values="0 0 0 0 0 0 0 0 0 0 0 0 0 0 0 0 0 0 127 0" result="hardAlpha"/>
<feOffset dy="2.22984"/>
<feGaussianBlur stdDeviation="1.11492"/>
<feComposite in2="hardAlpha" operator="out"/>
<feColorMatrix type="matrix" values="0 0 0 0 0 0 0 0 0 0 0 0 0 0 0 0 0 0 1 0"/>
<feBlend mode="normal" in2="BackgroundImageFix" result="effect1_dropShadow_1558_196"/>
<feBlend mode="normal" in="SourceGraphic" in2="effect1_dropShadow_1558_196" result="shape"/>
</filter>
<filter id="filter6_d_1558_196" x="-0.000347853" y="28" width="52.0691" height="64.5378" filterUnits="userSpaceOnUse" color-interpolation-filters="sRGB">
<feFlood flood-opacity="0" result="BackgroundImageFix"/>
<feColorMatrix in="SourceAlpha" type="matrix" values="0 0 0 0 0 0 0 0 0 0 0 0 0 0 0 0 0 0 127 0" result="hardAlpha"/>
<feOffset dy="2.22984"/>
<feGaussianBlur stdDeviation="1.11492"/>
<feComposite in2="hardAlpha" operator="out"/>
<feColorMatrix type="matrix" values="0 0 0 0 0 0 0 0 0 0 0 0 0 0 0 0 0 0 1 0"/>
<feBlend mode="normal" in2="BackgroundImageFix" result="effect1_dropShadow_1558_196"/>
<feBlend mode="normal" in="SourceGraphic" in2="effect1_dropShadow_1558_196" result="shape"/>
</filter>
</defs>
</svg>
